<svg xmlns="http://www.w3.org/2000/svg" viewBox="0 0 500 500" width="500" height="500">
  <!-- Прозоре тло -->
  <rect width="500" height="500" fill="none" />

  <!-- Силует персонажа -->
  <g>
    <!-- Тіло -->
    <path d="M150,400 C160,320 180,270 220,250 L280,250 C320,270 340,320 350,400 Z" fill="#2c2c2c"/>
    
    <!-- Плащ -->
    <path d="M140,400 C130,370 135,300 150,250 L100,230 L90,240 C85,290 100,370 130,420 Z" fill="#842c2a"/>

    <!-- Рука з револьвером -->
    <path d="M280,260 L320,250 L350,255 L340,260 L320,270 Z" fill="#383838"/>
    <rect x="320" y="250" width="30" height="6" rx="2" fill="#777"/>

    <!-- Голова -->
    <circle cx="250" cy="180" r="30" fill="#fcebb5"/>

    <!-- Капелюх -->
    <path d="M210,160 C230,140 270,140 290,160 L290,170 C270,180 230,180 210,170 Z" fill="#2c2c2c"/>
  </g>
</svg>